<?xml version="1.0" encoding="utf-8"?>
<svg xmlns="http://www.w3.org/2000/svg" xmlns:xlink="http://www.w3.org/1999/xlink" style="margin: auto; background: none; display: block; shape-rendering: auto;" width="91px" height="91px" viewBox="0 0 100 100" preserveAspectRatio="xMidYMid">
<g transform="rotate(0 50 50)">
  <rect x="43.5" y="7" rx="6.5" ry="7.04" width="13" height="16" fill="#0051a2">
    <animate attributeName="opacity" values="1;0" keyTimes="0;1" dur="1s" begin="-0.9s" repeatCount="indefinite"></animate>
  </rect>
</g><g transform="rotate(36 50 50)">
  <rect x="43.5" y="7" rx="6.5" ry="7.04" width="13" height="16" fill="#1b75be">
    <animate attributeName="opacity" values="1;0" keyTimes="0;1" dur="1s" begin="-0.8s" repeatCount="indefinite"></animate>
  </rect>
</g><g transform="rotate(72 50 50)">
  <rect x="43.5" y="7" rx="6.5" ry="7.04" width="13" height="16" fill="#408ee0">
    <animate attributeName="opacity" values="1;0" keyTimes="0;1" dur="1s" begin="-0.7s" repeatCount="indefinite"></animate>
  </rect>
</g><g transform="rotate(108 50 50)">
  <rect x="43.5" y="7" rx="6.5" ry="7.04" width="13" height="16" fill="#89bff8">
    <animate attributeName="opacity" values="1;0" keyTimes="0;1" dur="1s" begin="-0.6s" repeatCount="indefinite"></animate>
  </rect>
</g><g transform="rotate(144 50 50)">
  <rect x="43.5" y="7" rx="6.5" ry="7.04" width="13" height="16" fill="#c7e2fe">
    <animate attributeName="opacity" values="1;0" keyTimes="0;1" dur="1s" begin="-0.5s" repeatCount="indefinite"></animate>
  </rect>
</g><g transform="rotate(180 50 50)">
  <rect x="43.5" y="7" rx="6.5" ry="7.04" width="13" height="16" fill="#0051a2">
    <animate attributeName="opacity" values="1;0" keyTimes="0;1" dur="1s" begin="-0.4s" repeatCount="indefinite"></animate>
  </rect>
</g><g transform="rotate(216 50 50)">
  <rect x="43.5" y="7" rx="6.5" ry="7.04" width="13" height="16" fill="#1b75be">
    <animate attributeName="opacity" values="1;0" keyTimes="0;1" dur="1s" begin="-0.3s" repeatCount="indefinite"></animate>
  </rect>
</g><g transform="rotate(252 50 50)">
  <rect x="43.5" y="7" rx="6.5" ry="7.04" width="13" height="16" fill="#408ee0">
    <animate attributeName="opacity" values="1;0" keyTimes="0;1" dur="1s" begin="-0.2s" repeatCount="indefinite"></animate>
  </rect>
</g><g transform="rotate(288 50 50)">
  <rect x="43.5" y="7" rx="6.5" ry="7.04" width="13" height="16" fill="#89bff8">
    <animate attributeName="opacity" values="1;0" keyTimes="0;1" dur="1s" begin="-0.1s" repeatCount="indefinite"></animate>
  </rect>
</g><g transform="rotate(324 50 50)">
  <rect x="43.5" y="7" rx="6.5" ry="7.04" width="13" height="16" fill="#c7e2fe">
    <animate attributeName="opacity" values="1;0" keyTimes="0;1" dur="1s" begin="0s" repeatCount="indefinite"></animate>
  </rect>
</g>
<!-- [ldio] generated by https://loading.io/ --></svg>